PathFileType	4	(x/y/z)	S08_P20_T11
DataRate	CameraRate	NumFrames	NumMarkers	Units	OrigDataRate	OrigDataStartFrame	OrigNumFrames
240	240	5	51	mm	240	194	386
Frame#	Time	Sternum			R.Acromium			L.Acromium			Top.Head			R.ASIS			L.ASIS			R.PSIS			L.PSIS			R.Great.Tro			L.Great.Tro			R.Iliac.Crest			L.Iliac.Crest			V.Sacral			R.Thigh.Upper.Post			R.Thigh.Lower.Ant			R.Thigh.Lower.Post			R.Thigh.Upper.Ant			R.Knee.Lat			R.Knee.Med			R.Shank.Upper.Post			R.Shank.Lower.Ant			R.Shank.Lower.Post			R.Shank.Upper.Ant			R.Ankle.Lat			R.Ankle.Med			R.Heel.Upper			R.Heel.Med			R.Heel.Lat			R.Toe.Lat			R.Toe.Med			R.Toe.Tip			L.Thigh.Upper.Post			L.Thigh.Lower.Ant			L.Thigh.Lower.Post			L.Thigh.Upper.Ant			L.Knee.Lat			L.Knee.Med			L.Shank.Upper.Post			L.Shank.Lower.Ant			L.Shank.Lower.Post			L.Shank.Upper.Ant			L.Ankle.Lat			L.Ankle.Med			L.Heel.Upper			L.Heel.Med			L.Heel.Lat			L.Toe.Lat			L.Toe.Med			L.Toe.Tip			Cervical.Spine			Back			
		X1	Y1	Z1	X2	Y2	Z2	X3	Y3	Z3	X4	Y4	Z4	X5	Y5	Z5	X6	Y6	Z6	X7	Y7	Z7	X8	Y8	Z8	X9	Y9	Z9	X10	Y10	Z10	X11	Y11	Z11	X12	Y12	Z12	X13	Y13	Z13	X14	Y14	Z14	X15	Y15	Z15	X16	Y16	Z16	X17	Y17	Z17	X18	Y18	Z18	X19	Y19	Z19	X20	Y20	Z20	X21	Y21	Z21	X22	Y22	Z22	X23	Y23	Z23	X24	Y24	Z24	X25	Y25	Z25	X26	Y26	Z26	X27	Y27	Z27	X28	Y28	Z28	X29	Y29	Z29	X30	Y30	Z30	X31	Y31	Z31	X32	Y32	Z32	X33	Y33	Z33	X34	Y34	Z34	X35	Y35	Z35	X36	Y36	Z36	X37	Y37	Z37	X38	Y38	Z38	X39	Y39	Z39	X40	Y40	Z40	X41	Y41	Z41	X42	Y42	Z42	X43	Y43	Z43	X44	Y44	Z44	X45	Y45	Z45	X46	Y46	Z46	X47	Y47	Z47	X48	Y48	Z48	X49	Y49	Z49	X50	Y50	Z50	X51	Y51	Z51	

194	0.80417	-263.25	1241.1	310.84	-369.19	1478.3	495.62	-406.36	1503.7	163.87	-370.54	1795.2	351.3	-291.68	1029.1	428.83	-298.75	1027.6	199.1	-494.32	1048	356.95	-493.81	1048.8	263.85	-357.9	918.53	500.9	-375.44	916.42	130.84	-386.18	1096	475.53	-394.01	1105.2	168.12	-509.66	1006.7	310.88	-389.61	716.19	482.3	-316.49	617.52	440.93	-385.83	627.45	460.68	-311.97	709.87	464.77	-360.23	520.86	432.08	-390.82	528.98	307.94	-445.1	342.14	435.61	-390.26	276.28	410.5	-453.59	266.32	424.25	-382.31	352.55	421.95	-469.07	99.869	379.97	-442.96	117.5	303.44	-521.13	67.39	333.45	-510.53	40.31	305.75	-514.91	43.515	367.87	NaN	NaN	NaN	-322.43	46.516	290.58	-256.71	60.619	337.39	-292.76	711.61	141.35	-174.19	669.37	153.87	-237.15	639.73	154.52	-226.11	740.39	135.36	-191.07	560.91	167	-169.74	557.64	292.35	-304.12	424.61	168	-277.25	316.66	177.71	-335.25	358.59	181.18	-250.44	387.33	165.54	-387.32	194.35	186.62	-354.81	185.6	268.32	-442.52	188.42	240.45	-442.32	150.93	268.86	-450.51	162.39	206.06	-300.71	81.329	156.11	-270.21	73.522	266.33	-210.58	66.677	212.31	-452.68	1531.8	330.48	-496.73	1251.4	336.52
195	0.80833	-257.9	1240.9	311.03	-363.72	1478.3	495.68	-400.81	1503.5	163.9	-365.16	1795.1	351.25	-286.75	1028.7	429.08	-293.33	1027.5	199.26	-489.2	1047.8	356.67	-488.58	1048.8	263.57	-353.48	918.33	500.89	-369.81	916.58	130.63	-381.33	1095.8	475.51	-388.71	1105.2	168.14	-504.5	1006.6	310.54	-386.7	716.33	482.37	-314.38	617.14	440.87	-383.56	627.57	460.73	-309.11	709.47	464.82	-358.89	520.7	432.17	-389.24	529.02	307.95	-444.44	342.3	435.57	-389.72	276.35	410.69	-453.11	266.5	424.19	-381.6	352.54	422.04	-468.89	100.05	379.77	-442.62	117.62	303.3	-521.11	67.527	333.3	-510.38	40.332	305.72	-514.86	43.667	367.78	NaN	NaN	NaN	-322.35	46.446	290.52	-256.58	60.373	337.42	-286.45	712.02	141.32	-167.78	670.17	154.36	-230.65	640.35	154.75	-219.87	741.02	135.59	-184.24	561.54	167.62	-163.54	558.59	292.7	-294.47	422.16	168.15	-264.88	314.93	178.09	-323.91	355.37	181.36	-239.85	386.24	165.89	-371.88	189.78	186.73	-339.01	181.86	268.48	-426.9	182.06	240.53	-425.57	144.62	268.97	-434.11	155.77	206.23	-281.82	79.403	156.22	-251.07	72.522	266.45	-191.24	67.485	212.4	-447.23	1531.7	330.53	-491.44	1251.3	336.64
196	0.8125	-252.54	1240.7	311.21	-358.23	1478.2	495.74	-395.21	1503.2	163.92	-359.78	1794.9	351.21	-281.81	1028.3	429.3	-287.9	1027.4	199.4	-484.07	1047.7	356.4	-483.34	1048.7	263.29	-349.06	918.08	500.88	-364.2	916.67	130.42	-376.46	1095.5	475.48	-383.42	1105.1	168.17	-499.33	1006.4	310.19	-383.78	716.46	482.41	-312.26	616.74	440.8	-381.28	627.68	460.76	-306.25	709.04	464.86	-357.53	520.53	432.25	-387.64	529.05	307.95	-443.78	342.47	435.51	-389.18	276.42	410.84	-452.63	266.69	424.11	-380.88	352.53	422.11	-468.71	100.24	379.55	-442.25	117.73	303.14	-521.08	67.669	333.15	-510.2	40.349	305.68	-514.79	43.825	367.67	NaN	NaN	NaN	-322.24	46.377	290.48	-256.45	60.117	337.47	-280.24	712.35	141.33	-161.5	670.81	154.85	-224.31	640.86	155.02	-213.72	741.53	135.83	-177.56	562.05	168.24	-157.52	559.38	293.06	-284.82	419.6	168.27	-252.5	313.17	178.47	-312.54	352.08	181.54	-229.3	385.09	166.24	-356.29	185.23	186.85	-323.08	178.16	268.65	-411.06	175.73	240.61	-408.62	138.38	269.1	-417.51	149.22	206.41	-262.88	77.574	156.37	-231.9	71.654	266.63	-171.94	68.407	212.54	-441.77	1531.5	330.57	-486.13	1251.2	336.74
197	0.81667	-247.17	1240.5	311.39	-352.74	1478.1	495.8	-389.58	1502.8	163.91	-354.42	1794.7	351.15	-276.84	1027.9	429.51	-282.47	1027.3	199.52	-478.94	1047.4	356.13	-478.1	1048.6	263.02	-344.63	917.8	500.86	-358.61	916.7	130.21	-371.57	1095.2	475.44	-378.13	1105	168.2	-494.15	1006.3	309.86	-380.85	716.57	482.43	-310.12	616.33	440.73	-378.99	627.76	460.76	-303.38	708.6	464.9	-356.13	520.35	432.33	-386	529.08	307.94	-443.1	342.64	435.43	-388.64	276.46	410.95	-452.13	266.88	424.01	-380.15	352.51	422.17	-468.53	100.43	379.31	-441.87	117.85	302.97	-521.05	67.812	332.98	-510	40.36	305.64	-514.73	43.986	367.55	NaN	NaN	NaN	-322.1	46.308	290.43	-256.31	59.85	337.52	-274.15	712.59	141.37	-155.35	671.3	155.36	-218.11	641.25	155.32	-207.66	741.91	136.08	-171.04	562.45	168.85	-151.67	560.02	293.43	-275.18	416.95	168.39	-240.11	311.42	178.86	-301.15	348.73	181.7	-218.78	383.89	166.59	-340.56	180.72	186.98	-307.06	174.51	268.84	-395.03	169.44	240.7	-391.46	132.24	269.25	-400.7	142.74	206.6	-243.9	75.859	156.57	-212.73	70.93	266.86	-152.7	69.454	212.75	-436.3	1531.3	330.61	-480.82	1251.1	336.83
198	0.82083	-241.79	1240.1	311.57	-347.24	1477.9	495.86	-383.91	1502.4	163.9	-349.07	1794.4	351.1	-271.86	1027.4	429.7	-277.04	1027.1	199.62	-473.79	1047.2	355.87	-472.85	1048.4	262.75	-340.2	917.48	500.84	-353.04	916.68	130	-366.65	1094.8	475.4	-372.85	1104.9	168.23	-488.97	1006	309.54	-377.91	716.65	482.42	-307.95	615.9	440.65	-376.68	627.84	460.74	-300.51	708.13	464.92	-354.7	520.16	432.39	-384.33	529.11	307.91	-442.42	342.81	435.34	-388.11	276.48	411	-451.61	267.07	423.9	-379.4	352.49	422.21	-468.34	100.62	379.06	-441.48	117.96	302.79	-521.01	67.956	332.8	-509.79	40.368	305.59	-514.66	44.152	367.42	NaN	NaN	NaN	-321.94	46.238	290.39	-256.16	59.574	337.58	-268.17	712.75	141.45	-149.34	671.63	155.87	-212.07	641.52	155.63	-201.71	742.16	136.36	-164.67	562.72	169.46	-145.97	560.49	293.8	-265.56	414.22	168.5	-227.74	309.66	179.25	-289.73	345.35	181.86	-208.31	382.65	166.94	-324.69	176.28	187.1	-290.95	170.95	269.05	-378.82	163.24	240.78	-374.12	126.21	269.41	-383.71	136.36	206.79	-224.89	74.273	156.82	-193.58	70.363	267.15	-133.53	70.639	213.01	-430.81	1531.1	330.63	-475.5	1250.8	336.91
